# xmcd CD database file
#
# Track frame offsets:
#	150
#	15429
#	27064
#	43044
#	65978
#	77552
#	93364
#	110106
#	122630
#	137316
#	152707
#	170313
#
# Disc length: 2490 seconds
#
# Revision: 0
# Processed by: cddbd v1.5.1PL0 Copyright (c) Steve Scherf et al.
# Submitted via: CDex 1.51
#
DISCID=9009b80c
DTITLE=Hackensaw Boys - Love What You Do
DYEAR=2005
DGENRE=Country
TTITLE0=Sun's Work Undone
TTITLE1=Cannonball
TTITLE2=Kiss You Down There
TTITLE3=Alabama Shamrock
TTITLE4=We Are Many
TTITLE5=Bordertown
TTITLE6=High Faller
TTITLE7=Mecklenburg County
TTITLE8=Buildings Are the Cages
TTITLE9=Parking Lot Song
TTITLE10=Fiddle My Blues Away
TTITLE11=All Good Dogs
EXTD=YEAR: 2005
EXTT0=
EXTT1=
EXTT2=
EXTT3=
EXTT4=
EXTT5=
EXTT6=
EXTT7=
EXTT8=
EXTT9=
EXTT10=
EXTT11=
PLAYORDER=
